# xmcd CD database file
#
# Track frame offsets:
#	150
#	21880
#	41705
#
# Disc length: 844 seconds
#
# Revision: 0
# Processed by: cddbd v1.5.1PL2 Copyright (c) Steve Scherf et al.
# Submitted via: CDex 1.51
#
DISCID=1e034a03
DTITLE=中西圭三 - Why Goodbye
DYEAR=1995
DGENRE=JPop
TTITLE0=Why Goodbye
TTITLE1=Christmas Candle
TTITLE2=Why Goodbye
EXTD=YEAR: 19951122
EXTT0=
EXTT1=
EXTT2=
PLAYORDER=
